<?xml version="1.0" encoding="UTF-8"?>
<svg width="203px" height="203px" viewBox="0 0 203 203" version="1.1" xmlns="http://www.w3.org/2000/svg" xmlns:xlink="http://www.w3.org/1999/xlink">
    <!-- Generator: Sketch 52.5 (67469) - http://www.bohemiancoding.com/sketch -->
    <title>Artboard</title>
    <desc>Created with Sketch.</desc>
    <g id="Artboard" stroke="none" stroke-width="1" fill="none" fill-rule="evenodd">
        <text id="SONIX" font-family="Poppins-ExtraBold, Poppins" font-size="37.77" font-weight="600" fill="#FAFAFF">
            <tspan x="39.511345" y="111">SONIX</tspan>
        </text>
        <text id="ESTABLISHED-" font-family="Montserrat-Regular, Montserrat" font-size="10.77" font-weight="normal" fill="#FAFAFF">
            <tspan x="62.8214937" y="136">ES</tspan>
            <tspan x="76.5424737" y="136" letter-spacing="-1.0884474">T</tspan>
            <tspan x="81.2590563" y="136">ABLISHED </tspan>
        </text>
        <text id="2019" font-family="Montserrat-Regular, Montserrat" font-size="13.77" font-weight="normal" fill="#FAFAFF">
            <tspan x="83.89431" y="154">2019</tspan>
        </text>
        <text id="V" font-family="Oswald-Medium, Oswald" font-size="25.7456" font-weight="400" fill="#FFFFFE">
            <tspan x="94" y="54">V</tspan>
        </text>
        <path d="M101,4.43804921 C126.79186,4.43804921 151.040941,14.4825851 169.278679,32.7213213 C187.517415,50.959059 197.560952,75.2071417 197.560952,101 C197.560952,126.792858 187.517415,151.040941 169.278679,169.278679 C151.040941,187.517415 126.79186,197.561951 101,197.561951 C75.2071417,197.561951 50.9580604,187.517415 32.7203227,169.278679 C14.4815865,151.040941 4.43804921,126.792858 4.43804921,101 C4.43804921,75.2071417 14.4815865,50.959059 32.7203227,32.7213213 C50.9580604,14.4825851 75.2071417,4.43804921 101,4.43804921 Z M30.2888241,171.710177 C39.4725995,180.893953 50.1662007,188.103571 62.0750519,193.140318 C74.4042978,198.355808 87.5004394,201 101,201 C114.498562,201 127.594704,198.355808 139.92395,193.140318 C151.832801,188.103571 162.526402,180.893953 171.710177,171.710177 C180.892954,162.527401 188.103571,151.832801 193.140318,139.924948 C198.354809,127.595702 201,114.499561 201,101 C201,87.5004394 198.354809,74.4042978 193.140318,62.0750519 C188.103571,50.1671992 180.892954,39.4725995 171.710177,30.2888241 C162.526402,21.1060473 151.832801,13.8954306 139.92395,8.85968206 C127.594704,3.64419236 114.498562,1 101,1 C87.5004394,1 74.4042978,3.64419236 62.0750519,8.85968206 C50.1662007,13.8954306 39.4725995,21.1060473 30.2888241,30.2888241 C21.1060473,39.4725995 13.8954306,50.1671992 8.8586835,62.0750519 C3.64419236,74.4042978 1,87.5004394 1,101 C1,114.499561 3.64419236,127.595702 8.8586835,139.924948 C13.8954306,151.832801 21.1060473,162.527401 30.2888241,171.710177 Z" id="Fill-5" fill="#FAFAFF"></path>
        <path d="M101.000499,19.434827 C122.787443,19.434827 143.269863,27.9191688 158.675811,43.3240288 C174.081759,58.7298861 182.56615,79.2131836 182.56615,101 C182.56615,122.786816 174.081759,143.270114 158.675811,158.675971 C143.269863,174.080831 122.787443,182.565173 101.000499,182.565173 C79.2125571,182.565173 58.7301368,174.080831 43.3241891,158.675971 C27.9182414,143.270114 19.4338498,122.786816 19.4338498,101 C19.4338498,79.2131836 27.9182414,58.7298861 43.3241891,43.3240288 C58.7301368,27.9191688 79.2125571,19.434827 101.000499,19.434827 Z M16,101 C16,123.704366 24.8414402,145.049362 40.8956604,161.103488 C56.950878,177.157614 78.2959995,186 101.000499,186 C123.704001,186 145.049122,177.157614 161.10434,161.103488 C177.15856,145.049362 186,123.704366 186,101 C186,78.295634 177.15856,56.9506377 161.10434,40.8955143 C145.049122,24.8423856 123.704001,16 101.000499,16 C78.2959995,16 56.950878,24.8423856 40.8956604,40.8955143 C24.8414402,56.9506377 16,78.295634 16,101 Z" id="Fill-6" fill="#FAFAFF"></path>
        <path d="M150,176.141033 L151.122949,178 C152.089371,177.292615 153.057814,176.556358 154,175.810105 L152.814441,174 C151.892451,174.730705 150.945216,175.450305 150,176.141033" id="Fill-7" fill="#FAFAFF"></path>
        <path d="M93,11.6820858 L92.7937121,10 C91.5306122,10.0899916 90.2542747,10.1984861 89,10.3246426 L89.2890237,12 C90.5146167,11.8763667 91.7633756,11.7695542 93,11.6820858" id="Fill-8" fill="#FAFAFF"></path>
        <path d="M184,134.237219 L185.81068,135 C186.224272,133.911043 186.624272,132.797546 187,131.690184 L185.163107,131 C184.796117,132.082822 184.404854,133.172802 184,134.237219" id="Fill-9" fill="#FAFAFF"></path>
        <path d="M113,10.3275934 C111.743865,10.200756 110.46788,10.0907182 109.207334,10 L109,11.6799664 C110.232975,11.7681646 111.48139,11.8765225 112.70885,12 L113,10.3275934" id="Fill-10" fill="#FAFAFF"></path>
        <path d="M106,10.1226592 C105.015732,10.0617978 104.017735,10.0205993 103.032609,10 L103,11.8810861 C103.963673,11.9007491 104.940217,11.9410112 105.903032,12 L106,10.1226592" id="Fill-11" fill="#FAFAFF"></path>
        <path d="M120,11.7456979 C118.797539,11.473805 117.573683,11.2225621 116.362664,11 L116,13.2715105 C117.184274,13.4894837 118.381385,13.7338432 119.557101,14 L120,11.7456979" id="Fill-12" fill="#FAFAFF"></path>
        <path d="M181,141.102434 L182.655236,142 C183.120024,140.956389 183.571953,139.889452 184,138.827586 L182.314452,138 C181.895591,139.037525 181.453766,140.081136 181,141.102434" id="Fill-13" fill="#FAFAFF"></path>
        <path d="M166,162.575992 L167.538786,164 C168.371504,163.14168 169.198945,162.255538 170,161.365276 L168.407388,160 C167.624274,160.869655 166.81372,161.737249 166,162.575992" id="Fill-14" fill="#FAFAFF"></path>
        <path d="M86,13.2749904 L85.6383093,11 C84.4280364,11.2206051 83.2038523,11.4710839 82,11.7422444 L82.4408775,14 C83.6179775,13.7357334 84.8154093,13.4921486 86,13.2749904" id="Fill-15" fill="#FAFAFF"></path>
        <path d="M170,157.710071 L171.688889,159 C172.473713,158.096643 173.250949,157.163784 174,156.229908 L172.261247,155 C171.528455,155.914547 170.76748,156.826043 170,157.710071" id="Fill-16" fill="#FAFAFF"></path>
        <path d="M156,172.2954 L157.258278,174 C158.180336,173.241324 159.102394,172.452515 160,171.655098 L158.682629,170 C157.804381,170.781275 156.9027,171.552865 156,172.2954" id="Fill-17" fill="#FAFAFF"></path>
        <path d="M161,167.438845 L162.395709,169 C163.275523,168.188451 164.151202,167.349606 165,166.506562 L163.546394,165 C162.71724,165.825197 161.860171,166.645144 161,167.438845" id="Fill-18" fill="#FAFAFF"></path>
        <path d="M178,146.970477 L179.514444,148 C180.024803,147.001766 180.524657,145.980318 181,144.961898 L179.452291,144 C178.987453,144.995206 178.498103,145.995458 178,146.970477" id="Fill-19" fill="#FAFAFF"></path>
        <path d="M73,15.8811718 L72.3517665,14 C71.2293907,14.3584595 70.1018945,14.7435813 69,15.142528 L69.7229903,17 C70.8003072,16.6089533 71.9032258,16.2327189 73,15.8811718" id="Fill-20" fill="#FAFAFF"></path>
        <path d="M174,151.841121 L175.847619,153 C176.581513,152.049255 177.305322,151.07224 178,150.095226 L176.105322,149 C175.42521,149.955797 174.717087,150.910583 174,151.841121" id="Fill-21" fill="#FAFAFF"></path>
        <path d="M79,15.0653479 L78.491251,13 C77.3254113,13.2945955 76.1512144,13.6167432 75,13.955846 L75.5860538,16 C76.7111517,15.6683151 77.8592322,15.3535853 79,15.0653479" id="Fill-22" fill="#FAFAFF"></path>
        <path d="M99,11.8836773 L98.9682403,10 C97.9828326,10.0187617 96.9845494,10.0590994 96,10.119137 L96.0961373,12 C97.0583691,11.9418386 98.0360515,11.902439 99,11.8836773" id="Fill-23" fill="#FAFAFF"></path>
        <path d="M187.88705,81 L190,80.5273109 C189.721583,79.3518908 189.417266,78.164916 189.092446,77 L187,77.5504202 C187.317266,78.6901261 187.615108,79.8508403 187.88705,81" id="Fill-24" fill="#FAFAFF"></path>
        <path d="M190.271786,95 L192,94.8331015 C191.926661,93.5591099 191.832614,92.269541 191.722174,91 L190,91.2503477 C190.108714,92.4920723 190.200173,93.7538248 190.271786,95" id="Fill-25" fill="#FAFAFF"></path>
        <path d="M189.669014,88 L192,87.6767241 C191.798122,86.4515086 191.568075,85.2144397 191.315728,84 L189,84.4051724 C189.246479,85.5915948 189.471831,86.8017241 189.669014,88" id="Fill-26" fill="#FAFAFF"></path>
        <path d="M186.076229,75 L188,74.3845363 C187.654965,73.2532751 187.284855,72.115849 186.899699,71 L185,71.6894426 C185.378134,72.7796044 185.740221,73.8933984 186.076229,75" id="Fill-27" fill="#FAFAFF"></path>
        <path d="M184.239233,68 L186,67.246068 C185.599183,66.1633688 185.172902,65.0705226 184.731531,64 L183,64.8259767 C183.430997,65.8731608 183.847847,66.9406393 184.239233,68" id="Fill-28" fill="#FAFAFF"></path>
        <path d="M181.385442,62 L183,61.109879 C182.547136,60.0675403 182.070107,59.0211694 181.583234,58 L180,58.9586694 C180.476134,59.9566532 180.942422,60.9798387 181.385442,62" id="Fill-29" fill="#FAFAFF"></path>
        <path d="M188,121.516729 L190.194766,122 C190.485234,120.812533 190.756636,119.602762 191,118.403611 L188.788411,118 C188.549533,119.172597 188.28486,120.356877 188,121.516729" id="Fill-30" fill="#FAFAFF"></path>
        <path d="M189,115.667669 L190.623722,116 C190.766053,114.76141 190.892843,113.499863 191,112.250342 L189.368098,112 C189.262577,113.222192 189.139059,114.455316 189,115.667669" id="Fill-31" fill="#FAFAFF"></path>
        <path d="M190,108.825693 L191.819255,109 C191.899183,107.704018 191.960036,106.387663 192,105.089417 L190.17802,105 C190.138056,106.271081 190.078111,107.558008 190,108.825693" id="Fill-32" fill="#FAFAFF"></path>
        <path d="M190.060811,101.80011 L190.060811,101.994509 L192,102 L192,101.80011 C192,100.538166 191.978764,99.2586491 191.938224,98 L190,98.0823723 C190.040541,99.3146623 190.060811,100.564525 190.060811,101.80011" id="Fill-33" fill="#FAFAFF"></path>
        <path d="M152,25.1075878 C151.035597,24.3861835 150.045948,23.6772367 149.059328,23 L148,24.9388448 C148.965413,25.6024915 149.932845,26.2955832 150.876041,27 L152,25.1075878" id="Fill-34" fill="#FAFAFF"></path>
        <path d="M127,13.9590685 C125.848042,13.6182075 124.674151,13.2964008 123.510705,13 L123,15.0631616 C124.137337,15.3521524 125.286162,15.666549 126.41201,16 L127,13.9590685" id="Fill-35" fill="#FAFAFF"></path>
        <path d="M146,21.4481842 C144.990909,20.9512843 143.956566,20.4641275 142.926263,20 L142,21.5837024 C143.008081,22.0372011 144.020202,22.513729 145.006061,23 L146,21.4481842" id="Fill-36" fill="#FAFAFF"></path>
        <path d="M157,29.2694725 C156.082466,28.497677 155.138544,27.7346269 154.192591,27 L153,28.7797212 C153.924638,29.4979503 154.848262,30.2456955 155.746511,31 L157,29.2694725" id="Fill-37" fill="#FAFAFF"></path>
        <path d="M133,15.1435155 C131.895844,14.7435813 130.770139,14.359447 129.652642,14 L129,15.8821593 C130.093894,16.2327189 131.194972,16.6089533 132.273474,17 L133,15.1435155" id="Fill-38" fill="#FAFAFF"></path>
        <path d="M180,54.9748238 C179.334475,53.9758308 178.639269,52.9748238 177.931507,52 L176,53.0896274 C176.691781,54.0443102 177.372146,55.0231621 178.022831,56 L180,54.9748238" id="Fill-39" fill="#FAFAFF"></path>
        <path d="M140,18.3034161 C138.943089,17.8524845 137.863821,17.4136646 136.791667,17 L136,18.7254658 C137.049797,19.1298137 138.104675,19.5583851 139.137195,20 L140,18.3034161" id="Fill-40" fill="#FAFAFF"></path>
        <path d="M163,33.4212483 C162.12981,32.6010624 161.230888,31.7861886 160.328887,31 L159,32.6318725 C159.882504,33.4010624 160.761929,34.1978752 161.613648,35 L163,33.4212483" id="Fill-41" fill="#FAFAFF"></path>
        <path d="M177,48.8413863 C176.279031,47.8861624 175.528343,46.9299266 174.767749,46 L173,47.2213509 C173.744084,48.1310397 174.478261,49.0660258 175.18492,50 L177,48.8413863" id="Fill-42" fill="#FAFAFF"></path>
        <path d="M172,43.704499 C171.225427,42.793456 170.423077,41.8834356 169.613248,41 L168,42.3537832 C168.791667,43.2177914 169.576923,44.1083845 170.334402,45 L172,43.704499" id="Fill-43" fill="#FAFAFF"></path>
        <path d="M168,38.5662338 C167.176194,37.6987013 166.324197,36.8353247 165.468024,36 L164,37.4909091 C164.837379,38.3075325 165.670582,39.1522078 166.476638,40 L168,38.5662338" id="Fill-44" fill="#FAFAFF"></path>
        <path d="M79,190.141444 C80.1763464,190.449249 81.373812,190.738366 82.5607181,191 L83,188.838769 C81.8394931,188.58373 80.6684266,188.301209 79.5184794,188 L79,190.141444" id="Fill-45" fill="#FAFAFF"></path>
        <path d="M17,71.6922483 L15.1016722,71 C14.7153846,72.113572 14.3451505,73.2518671 14,74.3819212 L15.9234114,75 C16.2605351,73.8946691 16.6227425,72.7821272 17,71.6922483" id="Fill-46" fill="#FAFAFF"></path>
        <path d="M15,77.5532808 L12.9101366,77 C12.5844716,78.1653543 12.2782171,79.351706 12,80.5254593 L14.1103523,81 C14.3820992,79.8524934 14.6818835,78.6923885 15,77.5532808" id="Fill-47" fill="#FAFAFF"></path>
        <path d="M72,187.943878 C73.1264546,188.315306 74.2756659,188.671429 75.4155676,189 L76,187.033673 C74.8849237,186.711224 73.7605379,186.363265 72.6589087,186 L72,187.943878" id="Fill-48" fill="#FAFAFF"></path>
        <path d="M14,84.4061406 L11.6869871,84 C11.4337632,85.2130353 11.2028136,86.4497711 11,87.6746566 L13.3282532,88 C13.5263775,86.8031242 13.7526377,85.5933208 14,84.4061406" id="Fill-49" fill="#FAFAFF"></path>
        <path d="M65,185.772989 C66.0809706,186.200192 67.1823755,186.613027 68.2745849,187 L69,185.199234 C67.9312899,184.821839 66.8544061,184.417625 65.7979566,184 L65,185.772989" id="Fill-50" fill="#FAFAFF"></path>
        <path d="M10.9363855,101 C10.9373494,100.024263 10.9585542,99.0372617 11,98.0658579 L9.06554217,98 C9.02313253,98.992201 9.00096386,100.000867 9,100.998267 L10.9363855,101" id="Fill-51" fill="#FAFAFF"></path>
        <path d="M15.01839,125 L13,125.543659 C13.3112422,126.696466 13.648508,127.859667 14.0034698,129 L16,128.379418 C15.6533657,127.265073 15.3223456,126.127859 15.01839,125" id="Fill-52" fill="#FAFAFF"></path>
        <path d="M24,150.090542 C24.692437,151.067087 25.4162465,152.046658 26.1501401,153 L28,151.84691 C27.2817927,150.912736 26.5747899,149.955359 25.8969188,149 L24,150.090542" id="Fill-53" fill="#FAFAFF"></path>
        <path d="M19,64.8303617 L17.2661417,64 C16.8267717,65.0677534 16.4006299,66.1589404 16,67.2419766 L17.7631496,68 C18.1543307,66.9414162 18.5710236,65.8746816 19,64.8303617" id="Fill-54" fill="#FAFAFF"></path>
        <path d="M145,179.482251 L145.988674,181 C146.999497,180.51342 148.012333,180.003463 149,179.483983 L147.945885,178 C146.979361,178.507359 145.988674,179.006926 145,179.482251" id="Fill-55" fill="#FAFAFF"></path>
        <path d="M22,58.9615774 L20.414401,58 C19.9285928,59.0192113 19.4526442,60.0647118 19,61.1061678 L20.6160741,62 C21.0588587,60.9817998 21.5249477,59.958544 22,58.9615774" id="Fill-56" fill="#FAFAFF"></path>
        <path d="M85,191.372902 C86.2270138,191.606715 87.4757255,191.817746 88.7114185,192 L89,189.61271 C87.7914293,189.434053 86.56984,189.227818 85.3699485,189 L85,191.372902" id="Fill-57" fill="#FAFAFF"></path>
        <path d="M53,179.482679 C53.9889001,180.003176 54.9989909,180.514145 56.0060545,181 L57,179.484411 C56.0161453,179.008949 55.0272452,178.509238 54.0605449,178 L53,179.482679" id="Fill-58" fill="#FAFAFF"></path>
        <path d="M42,171.652314 C42.8934217,172.44887 43.8154003,173.238967 44.7373789,174 L46,172.297094 C45.0973993,171.552207 44.1958185,170.779333 43.3217746,170 L42,171.652314" id="Fill-59" fill="#FAFAFF"></path>
        <path d="M16.8418152,131 L15,131.683002 C15.3734198,132.79173 15.7711507,133.907606 16.1854133,135 L18,134.244513 C17.5964344,133.1756 17.206483,132.084227 16.8418152,131" id="Fill-60" fill="#FAFAFF"></path>
        <path d="M37,166.503018 C37.846134,167.346891 38.7212309,168.186565 39.5994311,169 L41,167.442404 C40.1393845,166.646812 39.283941,165.82498 38.4564262,165 L37,166.503018" id="Fill-61" fill="#FAFAFF"></path>
        <path d="M13.2204724,118 L11,118.396703 C11.2407199,119.596384 11.5095613,120.808827 11.7975253,122 L14,121.523531 C13.7176603,120.357884 13.4555681,119.173092 13.2204724,118" id="Fill-62" fill="#FAFAFF"></path>
        <path d="M11.6387521,111 L10,111.244049 C10.1050903,112.496033 10.229064,113.75896 10.3686371,115 L12,114.672777 C11.86289,113.459097 11.7413793,112.223529 11.6387521,111" id="Fill-63" fill="#FAFAFF"></path>
        <path d="M59,182.6202 C60.0306252,183.095555 61.0865604,183.560024 62.138446,184 L63,182.349864 C61.9703872,181.91896 60.9377373,181.464469 59.929385,181 L59,182.6202" id="Fill-64" fill="#FAFAFF"></path>
        <path d="M11.8303694,105 L10,105.082766 C10.0373917,106.38322 10.0957592,107.70068 10.1732786,109 L12,108.8322 C11.9243046,107.562358 11.8677611,106.272109 11.8303694,105" id="Fill-65" fill="#FAFAFF"></path>
        <path d="M28,156.224593 C28.7490515,157.160569 29.5252033,158.094512 30.3089431,159 L32,157.714431 C31.2346883,156.829268 30.4737127,155.91565 29.7420054,155 L28,156.224593" id="Fill-66" fill="#FAFAFF"></path>
        <path d="M20,143.956456 C20.4750656,144.97634 20.9746282,146.000252 21.4838145,147 L23,145.977095 C22.5021872,145.000503 22.0139983,143.998742 21.5494313,143 L20,143.956456" id="Fill-67" fill="#FAFAFF"></path>
        <path d="M47,175.808387 C47.9408194,176.555957 48.9069297,177.292419 49.8720283,178 L51,176.143849 C50.0561457,175.45293 49.1102681,174.730908 48.190693,174 L47,175.808387" id="Fill-68" fill="#FAFAFF"></path>
        <path d="M18.6868687,137 L17,137.820824 C17.4269972,138.883245 17.8787879,139.952742 18.3425161,141 L20,140.109426 C19.5463728,139.086429 19.1046832,138.039171 18.6868687,137" id="Fill-69" fill="#FAFAFF"></path>
        <path d="M12,91.2524326 L10.2816537,91 C10.1696813,92.2688351 10.0749354,93.558799 10,94.8320823 L11.7252369,95 C11.7984496,93.7545177 11.8906115,92.4945788 12,91.2524326" id="Fill-70" fill="#FAFAFF"></path>
        <path d="M38,37.4898701 L36.531976,36 C35.6758027,36.8353247 34.8238058,37.6987013 34,38.5651948 L35.5244062,40 C36.3294179,39.1511688 37.1626207,38.3064935 38,37.4898701" id="Fill-71" fill="#FAFAFF"></path>
        <path d="M139,182.347235 L139.853899,184 C140.906636,183.56029 141.96543,183.097008 143,182.62194 L142.077467,181 C141.065102,181.465095 140.029523,181.918404 139,182.347235" id="Fill-72" fill="#FAFAFF"></path>
        <path d="M34,42.3544757 L32.384821,41 C31.576697,41.8828645 30.7739177,42.7923274 30,43.7038363 L31.6664885,45 C32.424372,44.1079284 33.2089792,43.2179028 34,42.3544757" id="Fill-73" fill="#FAFAFF"></path>
        <path d="M186,128.374545 L187.988239,129 C188.346247,127.862338 188.685576,126.700779 189,125.548571 L186.988931,125 C186.681771,126.127273 186.349706,127.261818 186,128.374545" id="Fill-74" fill="#FAFAFF"></path>
        <path d="M132,185.1977 L132.716357,187 C133.814297,186.613861 134.918341,186.200894 136,185.775471 L135.210379,184 C134.153142,184.4168 133.073518,184.819227 132,185.1977" id="Fill-75" fill="#FAFAFF"></path>
        <path d="M126,187.025912 L126.578525,189 C127.719017,188.673713 128.870893,188.319809 130,187.950563 L129.345925,186 C128.241656,186.361064 127.115653,186.706785 126,187.025912" id="Fill-76" fill="#FAFAFF"></path>
        <path d="M30,47.2228977 L28.231405,46 C27.4699725,46.9311044 26.7184573,47.8865248 26,48.8399189 L27.8181818,50 C28.5212121,49.0668693 29.2561983,48.1327254 30,47.2228977" id="Fill-77" fill="#FAFAFF"></path>
        <path d="M60,21.5809496 L59.0770781,20 C58.0453401,20.4644648 57.0095718,20.9528163 56,21.4508994 L56.9904282,23 C57.9788413,22.5134179 58.9914358,22.0356827 60,21.5809496" id="Fill-78" fill="#FAFAFF"></path>
        <path d="M66,18.7227907 L65.2129653,17 C64.1372499,17.4148837 63.05647,17.8539535 62,18.3051163 L62.8579387,20 C63.8911117,19.5581395 64.9485946,19.1283721 66,18.7227907" id="Fill-79" fill="#FAFAFF"></path>
        <path d="M32,161.362162 C32.7970441,162.250708 33.6247031,163.138224 34.4576405,164 L36,162.58018 C35.1850092,161.736937 34.3752969,160.868983 33.5951438,160 L32,161.362162" id="Fill-80" fill="#FAFAFF"></path>
        <path d="M49,28.7782632 L47.8086185,27 C46.8636248,27.7340251 45.9186312,28.4986346 45,29.2708902 L46.2532319,31 C47.1515843,30.2441289 48.0762991,29.4969962 49,28.7782632" id="Fill-81" fill="#FAFAFF"></path>
        <path d="M54,24.9372349 L52.9428068,23 C51.9551524,23.6785411 50.9654825,24.3876166 50,25.109132 L51.1216931,27 C52.0660116,26.2943172 53.0345175,25.6010744 54,24.9372349" id="Fill-82" fill="#FAFAFF"></path>
        <path d="M43,32.6310061 L41.6714542,31 C40.7707104,31.786833 39.8720185,32.6023361 39,33.4231484 L40.3859964,35 C41.2395486,34.1972392 42.1187484,33.4008495 43,32.6310061" id="Fill-83" fill="#FAFAFF"></path>
        <path d="M92,191.767565 C93.2798654,191.863897 94.5821649,191.94167 95.8698822,192 L96,190.227132 C94.7392036,190.17057 93.4649467,190.094565 92.2131239,190 L92,191.767565" id="Fill-84" fill="#FAFAFF"></path>
        <path d="M25,53.0918264 L23.5492998,52 C23.0185767,52.9767911 22.4972849,53.9767911 22,54.9737639 L23.4849957,56 C23.9711346,55.025227 24.4812804,54.0474268 25,53.0918264" id="Fill-85" fill="#FAFAFF"></path>
        <path d="M99.0346721,191 L99,192.98224 C99.5374169,192.99408 100.076567,193 100.618318,193 C101.079457,193 101.539728,192.996053 102,192.987173 L101.970529,191.004933 C100.993643,191.024667 100.010691,191.022694 99.0346721,191" id="Fill-86" fill="#FAFAFF"></path>
        <path d="M113,189.402728 L113.281369,191 C114.519826,190.881268 115.770234,190.742479 117,190.58925 L116.636067,189 C115.43346,189.150822 114.210212,189.286402 113,189.402728" id="Fill-87" fill="#FAFAFF"></path>
        <path d="M106,190.220151 L106.122472,192 C107.41236,191.944075 108.716854,191.869507 110,191.775411 L109.793258,190 C108.537079,190.091434 107.260674,190.166001 106,190.220151" id="Fill-88" fill="#FAFAFF"></path>
        <path d="M119,188.831618 L119.433289,191 C120.62325,190.740809 121.822721,190.455147 123,190.149632 L122.48745,188 C121.336592,188.297794 120.16354,188.577941 119,188.831618" id="Fill-89" fill="#FAFAFF"></path>
        <polyline id="Fill-91" fill="#FAFAFF" points="76 52.9995561 76 52 63 52 63 54 76 54 76 52.9995561"></polyline>
        <polyline id="Fill-92" fill="#FAFAFF" points="76 62 76 61 53 61 53 63 76 63 76 62"></polyline>
        <polyline id="Fill-93" fill="#FAFAFF" points="139 52.9995561 139 52 126 52 126 54 139 54 139 52.9995561"></polyline>
        <polyline id="Fill-94" fill="#FAFAFF" points="149 62 149 61 126 61 126 63 149 63 149 62"></polyline>
        <path d="M100.05432,167.493721 L100.05432,162 L99.3870858,162 C99.1250585,163.219459 97.2744906,171.531759 95,174.128317 C95,174.128317 97.0653367,176.478238 97.2595176,179 L103.740014,179 C103.934663,176.478238 106,174.128317 106,174.128317 C103.725509,171.531759 101.874942,163.219459 101.612446,162 L100.945212,162 L100.945212,167.493721 C101.415926,167.675503 101.750011,168.135641 101.750011,168.675782 C101.750011,169.374509 101.190395,169.940687 100.499766,169.940687 C99.8096048,169.940687 99.2495215,169.374509 99.2495215,168.675782 C99.2495215,168.135641 99.5836063,167.675503 100.05432,167.493721" id="Fill-174" fill="#FAFAFF"></path>
        <polyline id="Fill-459" fill="#FAFAFF" points="106.253518 43.533961 101 33 95.7486569 43.533961 84 45.2254203 92.5 53.4244788 90.4951394 65 101 59.533961 111.507035 65 109.5 53.4244788 118 45.2254203 106.253518 43.533961"></polyline>
    </g>
</svg>